<svg width="16" height="17" viewBox="0 0 16 17" fill="none" xmlns="http://www.w3.org/2000/svg">
<path fill-rule="evenodd" clip-rule="evenodd" d="M14.9143 16.5C15.4613 16.5 15.8485 16.0792 15.8485 15.5405C15.8485 15.288 15.7643 15.0439 15.5792 14.8672L11.6149 10.8945C12.4482 9.80037 12.9448 8.44529 12.9448 6.97238C12.9448 3.41215 10.0326 0.5 6.47238 0.5C2.92057 0.5 0 3.40373 0 6.97238C0 10.5326 2.91215 13.4448 6.47238 13.4448C7.87796 13.4448 9.17412 12.9903 10.2346 12.2328L14.2241 16.2223C14.4093 16.4074 14.6533 16.5 14.9143 16.5ZM6.47238 12.0476C3.6949 12.0476 1.39716 9.74987 1.39716 6.97238C1.39716 4.1949 3.6949 1.89716 6.47238 1.89716C9.24987 1.89716 11.5476 4.1949 11.5476 6.97238C11.5476 9.74987 9.24987 12.0476 6.47238 12.0476Z" fill="black"/>
</svg>